<?xml version="1.0" encoding="UTF-8"?><svg id="Camada_1" xmlns="http://www.w3.org/2000/svg" viewBox="0 0 300 261.28"><defs><style>.cls-1{fill:#f37021;}</style></defs><rect class="cls-1" x="231.04" y="87.54" width="20.31" height="97.84"/><path class="cls-1" d="M234.92,65.02c-2.4,1.85-3.88,3.69-3.88,6.46,0,4.8,4.61,8.49,10.52,6.28l31.57-11.63v-31.01l-38.21,29.91Z"/><path class="cls-1" d="M75.61,85.69c-27.32,0-48.73,20.49-48.73,50.03s21.6,51.5,50.76,51.5c18.09,0,32.67-8.68,42.27-21.41l-14.21-11.63c-7.01,9.23-16.61,14.03-28.61,14.03-15.88,0-26.58-9.05-29.54-23.63H112.84c6.27,0,10.02-2.95,10.02-10.15,0-22.52-16.24-48.73-47.26-48.73Zm-28.06,40.43c2.95-13.29,13.48-21.41,28.06-21.41s24.55,8.12,26.4,21.41H47.55Z"/><path class="cls-1" d="M159.23,147.72h50.76v-18.46h-50.76c-.37-15.32,9.97-24.55,24.18-24.55,7.75,0,14.4,2.77,19.38,6.28l12.92-14.58c-9.41-7.01-19.57-10.71-31.75-10.71-26.77,0-45.04,17.72-45.04,43.57v56.12h20.31v-37.66Z"/><path class="cls-1" d="M156.98,212.81c1.88-1.33,3.07-3.41,3.07-5.84,0-4.03-3.17-6.62-7.96-6.62h-13.14v26.38h13.05c5.85,0,9.11-2.88,9.11-7.29,0-3.11-1.73-5.35-4.12-6.63Zm-5.47-8.62c2.4,0,4.03,1.34,4.03,3.55s-1.53,3.84-3.65,3.84h-8.63v-7.39h8.25Zm.1,18.7h-8.35v-7.48h9.21c2.4,0,4.03,1.25,4.03,3.45,0,2.49-2.01,4.03-4.89,4.03Z"/><rect class="cls-1" x="228.25" y="200.36" width="4.32" height="26.38"/><path class="cls-1" d="M251.27,200.36h-5.56l-9.98,11.03c-1.25,1.44-1.34,2.88,0,4.32l10.17,11.03h5.47l-12.18-13.24,12.09-13.14Z"/><path class="cls-1" d="M215.26,220.05l-12.92-17.87c-.86-1.15-1.63-1.82-2.97-1.82-1.44,0-2.59,1.25-2.59,2.88v23.5h4.32l-.16-19.69,12.92,17.87c.86,1.25,2.01,1.82,3.07,1.82,1.44,0,2.49-1.25,2.49-2.88v-23.5h-4.32l.16,19.69Z"/><path class="cls-1" d="M178.27,200.36c-1.63,0-2.78,.86-3.45,2.4l-10.26,23.98h4.6l2.17-5.28h13.69l2.17,5.28h4.7l-10.26-23.98c-.58-1.34-1.53-2.4-3.36-2.4Zm-5.36,17.27l5.27-12.8,5.27,12.8h-10.53Z"/></svg>